<mxfile host="65bd71144e">
    <diagram id="7AUuCbugMvAbF2xqyScm" name="Page-1">
        <mxGraphModel dx="654" dy="376" grid="1" gridSize="10" guides="1" tooltips="1" connect="1" arrows="1" fold="1" page="1" pageScale="1" pageWidth="850" pageHeight="1100" math="0" shadow="0">
            <root>
                <mxCell id="0"/>
                <mxCell id="1" parent="0"/>
                <mxCell id="2" value="Generic Attribute Profile" style="swimlane;fontFamily=Nunito;fontSource=https%3A%2F%2Ffonts.googleapis.com%2Fcss%3Ffamily%3DNunito;" vertex="1" parent="1">
                    <mxGeometry x="260" y="170" width="330" height="230" as="geometry">
                        <mxRectangle x="260" y="170" width="160" height="23" as="alternateBounds"/>
                    </mxGeometry>
                </mxCell>
                <mxCell id="3" value="WiFi Provision Service" style="rounded=1;whiteSpace=wrap;html=1;fontFamily=Nunito;fontSource=https%3A%2F%2Ffonts.googleapis.com%2Fcss%3Ffamily%3DNunito;" vertex="1" parent="2">
                    <mxGeometry x="10" y="40" width="140" height="60" as="geometry"/>
                </mxCell>
                <mxCell id="4" value="ThingSpeak Provision Service" style="rounded=1;whiteSpace=wrap;html=1;fontFamily=Nunito;fontSource=https%3A%2F%2Ffonts.googleapis.com%2Fcss%3Ffamily%3DNunito;" vertex="1" parent="2">
                    <mxGeometry x="180" y="40" width="140" height="60" as="geometry"/>
                </mxCell>
                <mxCell id="5" value="SSID Characteristic" style="rounded=0;whiteSpace=wrap;html=1;fontFamily=Nunito;fontSource=https%3A%2F%2Ffonts.googleapis.com%2Fcss%3Ffamily%3DNunito;" vertex="1" parent="2">
                    <mxGeometry x="10" y="102" width="140" height="40" as="geometry"/>
                </mxCell>
                <mxCell id="6" value="Username Characteristic" style="rounded=0;whiteSpace=wrap;html=1;fontFamily=Nunito;fontSource=https%3A%2F%2Ffonts.googleapis.com%2Fcss%3Ffamily%3DNunito;" vertex="1" parent="2">
                    <mxGeometry x="10" y="142" width="140" height="40" as="geometry"/>
                </mxCell>
                <mxCell id="7" value="Password Characteristic" style="rounded=0;whiteSpace=wrap;html=1;fontFamily=Nunito;fontSource=https%3A%2F%2Ffonts.googleapis.com%2Fcss%3Ffamily%3DNunito;" vertex="1" parent="2">
                    <mxGeometry x="10" y="182" width="140" height="40" as="geometry"/>
                </mxCell>
                <mxCell id="8" value="Channel ID Characteristic" style="rounded=0;whiteSpace=wrap;html=1;fontFamily=Nunito;fontSource=https%3A%2F%2Ffonts.googleapis.com%2Fcss%3Ffamily%3DNunito;" vertex="1" parent="2">
                    <mxGeometry x="180" y="102" width="140" height="40" as="geometry"/>
                </mxCell>
                <mxCell id="9" value="Write Key Characteristic" style="rounded=0;whiteSpace=wrap;html=1;fontFamily=Nunito;fontSource=https%3A%2F%2Ffonts.googleapis.com%2Fcss%3Ffamily%3DNunito;" vertex="1" parent="2">
                    <mxGeometry x="180" y="142" width="140" height="40" as="geometry"/>
                </mxCell>
                <mxCell id="10" value="Read Key Characteristic" style="rounded=0;whiteSpace=wrap;html=1;fontFamily=Nunito;fontSource=https%3A%2F%2Ffonts.googleapis.com%2Fcss%3Ffamily%3DNunito;" vertex="1" parent="2">
                    <mxGeometry x="180" y="182" width="140" height="40" as="geometry"/>
                </mxCell>
            </root>
        </mxGraphModel>
    </diagram>
</mxfile>